<svg width="135" height="33" viewBox="0 0 135 33" fill="none" xmlns="http://www.w3.org/2000/svg">
<rect x="0.5" y="0.5" width="134" height="32" rx="16" fill="#F9FAFB"/>
<rect x="0.5" y="0.5" width="134" height="32" rx="16" stroke="#EAECF0"/>
<g clip-path="url(#clip0_196_1735)">
<path fill-rule="evenodd" clip-rule="evenodd" d="M20.2545 23.3359C20.9506 22.3064 21.0148 21.1945 20.4469 20.0002C20.289 20.6409 20.0002 21.0298 19.5803 21.1669C19.9702 20.0535 19.6444 18.8506 18.603 17.5582C18.5805 18.893 18.2597 19.8653 17.6406 20.4752C16.7878 21.3146 16.7978 22.2619 17.6707 23.3171C14.0472 21.3888 13.536 18.8025 16.137 15.5583C16.2983 16.3421 16.6893 16.8232 17.3099 17.0018C16.6334 14.1313 17.3451 11.6853 19.445 9.66406C19.4579 14.1497 20.8335 14.5484 22.5726 16.5507C24.4503 18.9536 23.3469 21.7265 20.2545 23.3359Z" fill="url(#paint0_linear_196_1735)"/>
</g>
<path d="M30.8585 12.572V11.27H37.6485V12.572H35.0585V21H33.4625V12.572H30.8585ZM44.6408 11.256V12.558H40.8608V15.414H44.2208V16.716H40.8608V19.698H44.6408V21H39.2648V11.256H44.6408ZM53.1726 18.242C53.1726 19.698 51.9826 21.098 49.8126 21.098C47.8666 21.098 46.3686 20.034 46.3686 18.312H48.0766C48.1466 19.11 48.7066 19.754 49.8126 19.754C50.9326 19.754 51.5626 19.152 51.5626 18.326C51.5626 15.974 46.3966 17.5 46.3966 13.916C46.3966 12.208 47.7546 11.144 49.7426 11.144C51.6046 11.144 52.9206 12.124 53.0606 13.79H51.2966C51.2406 13.132 50.6666 12.53 49.6586 12.502C48.7346 12.474 48.0206 12.922 48.0206 13.86C48.0206 16.058 53.1726 14.686 53.1726 18.242ZM54.5519 12.572V11.27H61.3419V12.572H58.7519V21H57.1559V12.572H54.5519ZM62.9582 21V11.27H64.5542V21H62.9582ZM66.6496 21V11.27H68.3716L71.7876 18.9L75.1896 11.27H76.8976V21H75.3016V14.336L72.3336 21H71.2276L68.2456 14.336V21H66.6496ZM88.4033 16.114C88.4033 19.04 86.2053 21.098 83.4333 21.098C80.6893 21.098 78.4633 19.04 78.4633 16.114C78.4633 13.202 80.6893 11.144 83.4333 11.144C86.2053 11.144 88.4033 13.202 88.4033 16.114ZM80.1013 16.114C80.1013 18.312 81.5013 19.712 83.4333 19.712C85.3653 19.712 86.7653 18.312 86.7653 16.114C86.7653 13.916 85.3653 12.544 83.4333 12.544C81.5013 12.544 80.1013 13.916 80.1013 16.114ZM96.3718 11.256H97.9678V21H96.3718L91.5698 13.734V21H89.9738V11.256H91.5698L96.3718 18.508V11.256ZM100.064 21V11.27H101.66V21H100.064ZM110.321 21L109.621 19.012H105.547L104.847 21H103.181L106.667 11.256H108.515L112.001 21H110.321ZM109.173 17.71L107.591 13.188L105.995 17.71H109.173ZM113.517 11.27H115.113V19.712H118.403V21H113.517V11.27Z" fill="#031B1D"/>
<defs>
<linearGradient id="paint0_linear_196_1735" x1="23.1973" y1="13.4164" x2="15.1979" y2="21.4159" gradientUnits="userSpaceOnUse">
<stop stop-color="#EF3E3D"/>
<stop offset="1" stop-color="#FFC828"/>
</linearGradient>
<clipPath id="clip0_196_1735">
<rect width="14" height="14" fill="white" transform="translate(12 9.5)"/>
</clipPath>
</defs>
</svg>
