<svg width="211" height="52" viewBox="0 0 211 52" fill="none" xmlns="http://www.w3.org/2000/svg">
<rect x="0.4" y="0.4" width="178.2" height="51.2" rx="25.6" stroke="#40AF3E" stroke-width="0.8"/>
<path d="M49.196 29.712L52.252 20.832H54.636L50.54 32H47.82L43.724 20.832H46.124L49.196 29.712ZM55.979 32V23.136H58.219V32H55.979ZM57.115 22.08C56.315 22.08 55.739 21.504 55.739 20.768C55.739 20.032 56.315 19.456 57.115 19.456C57.899 19.456 58.491 20.032 58.491 20.768C58.491 21.504 57.899 22.08 57.115 22.08ZM64.2401 24.832C63.1681 24.832 62.3201 25.52 62.1441 26.736H66.3521C66.3201 25.568 65.3921 24.832 64.2401 24.832ZM68.4481 29.216C67.9681 30.848 66.4961 32.144 64.3041 32.144C61.7281 32.144 59.8561 30.352 59.8561 27.568C59.8561 24.768 61.6801 22.992 64.3041 22.992C66.8641 22.992 68.6721 24.736 68.6721 27.376C68.6721 27.664 68.6561 27.952 68.6081 28.24H62.1281C62.2401 29.552 63.1361 30.288 64.2561 30.288C65.2161 30.288 65.7441 29.808 66.0321 29.216H68.4481ZM71.9231 32L69.3151 23.136H71.5871L73.1551 29.888L74.8511 23.136H77.2191L78.8831 29.872L80.4511 23.136H82.5951L80.0031 32H77.5871L75.9711 25.808L74.3551 32H71.9231ZM87.6196 32V20.832H90.1636L93.7156 29.136L97.2676 20.832H99.7956V32H97.5556V24.736L94.5636 32H92.8676L89.8596 24.736V32H87.6196ZM110.57 27.568C110.57 30.352 108.522 32.144 105.946 32.144C103.386 32.144 101.45 30.352 101.45 27.568C101.45 24.768 103.45 22.992 106.01 22.992C108.57 22.992 110.57 24.768 110.57 27.568ZM103.722 27.568C103.722 29.328 104.746 30.192 105.946 30.192C107.13 30.192 108.266 29.328 108.266 27.568C108.266 25.792 107.162 24.944 105.978 24.944C104.794 24.944 103.722 25.792 103.722 27.568ZM114.453 27.584V32H112.213V23.136H114.453V24.512C115.013 23.6 115.941 23.008 117.173 23.008V25.36H116.581C115.253 25.36 114.453 25.872 114.453 27.584ZM122.49 24.832C121.418 24.832 120.57 25.52 120.394 26.736H124.602C124.57 25.568 123.642 24.832 122.49 24.832ZM126.698 29.216C126.218 30.848 124.746 32.144 122.554 32.144C119.978 32.144 118.106 30.352 118.106 27.568C118.106 24.768 119.93 22.992 122.554 22.992C125.114 22.992 126.922 24.736 126.922 27.376C126.922 27.664 126.906 27.952 126.858 28.24H120.378C120.49 29.552 121.386 30.288 122.506 30.288C123.466 30.288 123.994 29.808 124.282 29.216H126.698Z" fill="black"/>
<rect x="159" width="52" height="52" rx="26" fill="#00B512"/>
<path d="M189.711 29.705L191.748 22.1042L184.147 20.0675" stroke="white" stroke-width="1.6" stroke-miterlimit="10" stroke-linecap="round" stroke-linejoin="round"/>
<path d="M178.252 29.8959L191.613 22.1821" stroke="white" stroke-width="1.6" stroke-miterlimit="10" stroke-linecap="round" stroke-linejoin="round"/>
</svg>
